<?xml version="1.0" encoding="utf-8"?>
<!-- Generator: Adobe Illustrator 21.1.0, SVG Export Plug-In . SVG Version: 6.00 Build 0)  -->
<svg version="1.1" id="Layer_1" xmlns="http://www.w3.org/2000/svg" xmlns:xlink="http://www.w3.org/1999/xlink" x="0px" y="0px"
	 viewBox="0 0 605.8 137.9" style="enable-background:new 0 0 605.8 137.9;" xml:space="preserve">
<style type="text/css">
	.st0{fill:#FFFFFF;}
</style>
<title>logo-secret-escapes</title>
<g>
	<path class="st0" d="M68.9,10.5h6V7.6V5.3H47l-8.5,56l-1,6.7l-9-60.5L28,5.3H0.5v5.1h2.4h3.3v2.2v103.4c0,6.1-0.5,15.8-4.7,15.8H0
		v5.1h2.4h13.3v-3v-2.1h-1.4c-0.4,0-0.8-0.1-1.2-0.2c-3.9-1.3-4.1-9.3-4.1-15.9V24.2h0.2l2.2,14.4l15,98.4h2h1.1l10.2-67.1l6.7-44.4
		h0.2v0v16.7v89.6h-5.9v5.1H43h31.9v-2.9v-2.2h-3.6h-2.4V10.5z"/>
</g>
<g>
	<path class="st0" d="M89.9,88l6.9-48.3l0.1,0.9l1.2,8.5l5.6,39H92.6H90H89.9z M138.2,134.1v-2.2h-2.2h-2L115.6,7.6l-0.3-2.2H99.4
		L83.7,112.5c-1.2,8.2-3,19.4-5.5,19.4h-1.7v5.1h2.4h12.2v-2.9v-2.2h-2.1c0,0,0,0-0.1,0c-1.8-0.1-4.3-3.5-3.3-14.3
		c0.1-1.3,0.3-2.6,0.5-4.1l3-20.3h0h15.3l0.3,2.2l5.1,36.5h-5.5v5.1h2.4h31.4V134.1z"/>
</g>
<g>
	<path class="st0" d="M209.2,10.5h6V7.6V5.3h-28l-8.5,56l-1,6.7l-9-60.5l-0.3-2.2h-27.5v5.1h2.4h3.3v2.2v103.4
		c0,6.1-0.5,15.8-4.7,15.8h-1.4v5.1h2.4h13.3v-3v-2.1h-1.4c-0.4,0-0.8-0.1-1.2-0.2c-3.9-1.3-4.1-9.3-4.1-15.9V24.2h0.2l2.2,14.4
		l15,98.4h2h1.1L180,69.9l6.7-44.4h0.2v0v16.7v89.6h-5.9v5.1h2.4h31.9v-2.9v-2.2h-3.6h-2.4V10.5z"/>
</g>
<g>
	<path class="st0" d="M287.2,10.5h6V7.6V5.3h-28l-8.5,56l-1,6.7l-9-60.5l-0.3-2.2h-27.5v5.1h2.4h3.3v2.2v103.4
		c0,6.1-0.5,15.8-4.7,15.8h-1.4v5.1h2.4h13.3v-3v-2.1h-1.4c-0.4,0-0.8-0.1-1.2-0.2c-3.9-1.3-4.1-9.3-4.1-15.9V24.2h0.2l2.2,14.5
		l15,98.4h2h1.1L258,69.9l6.7-44.4h0.2v0v16.7v89.6h-5.9v5.1h2.4h31.9v-2.9v-2.2h-3.6h-2.4V10.5z"/>
</g>
<g>
	<path class="st0" d="M308.2,88l6.9-48.3l0.1,0.9l1.2,8.5l5.6,39h-11.2h-2.6H308.2z M356.5,134.1v-2.2h-2.2h-2L333.9,7.6l-0.3-2.2
		h-15.9L302,112.5c-1.2,8.2-3,19.4-5.5,19.4h-1.7v5.1h2.4h12.2v-2.9v-2.2h-2.1c0,0,0,0-0.1,0c-1.8-0.1-4.3-3.5-3.3-14.3
		c0.1-1.3,0.3-2.6,0.5-4.1l3-20.3h0h15.3l0.3,2.2l5.1,36.5h-5.5v5.1h2.4h31.4V134.1z"/>
</g>
<g>
	<path class="st0" d="M451.1,10h6V7.1V4.8h-28l-8.5,56l-1,6.7l-9-60.5l-0.3-2.2h-27.5V10h2.4h3.3v2.2v103.4c0,6.1-0.5,15.8-4.7,15.8
		h-1.4v5.1h2.4h13.3v-3v-2.1h-1.4c-0.4,0-0.8-0.1-1.2-0.2c-3.9-1.3-4.1-9.3-4.1-15.9V23.7h0.2l2.2,14.4l15,98.4h2h1.1l10.2-67.1
		l6.7-44.4h0.2v0v16.7v89.6h-5.9v5.1h2.4h31.9v-2.9v-2.2h-3.6h-2.4V10z"/>
</g>
<g>
	<polygon class="st0" points="486.6,10 492.4,10 492.4,7.1 492.4,4.8 459.3,4.8 459.3,10 461.7,10 465.1,10 465.1,12.2 465.1,131.4 
		459.3,131.4 459.3,136.5 461.7,136.5 492.4,136.5 492.4,133.6 492.4,131.4 489,131.4 486.6,131.4 	"/>
</g>
<g>
	<path class="st0" d="M508.1,87.5l6.9-48.3l0.1,0.9l1.2,8.5l5.6,39h-11.2h-2.6H508.1z M556.4,133.6v-2.2h-2.2h-2L533.8,7.1l-0.3-2.2
		h-15.9L501.9,112c-1.2,8.2-3,19.4-5.5,19.4h-1.7v5.1h2.4h12.2v-2.9v-2.2h-2.1c0,0,0,0-0.1,0c-1.8-0.1-4.3-3.5-3.3-14.3
		c0.1-1.3,0.3-2.6,0.5-4.1l3-20.3h0h15.3l0.3,2.2l5.1,36.5h-5.5v5.1h2.4h31.4V133.6z"/>
</g>
<g>
	<path class="st0" d="M586.1,115.3c0-8.6-2-14.5-4.8-18c-2.2-2.7-5-4-7.7-4c-6.2,0-12.5,6.6-12.5,22c0,10.9,3.1,17.4,7.1,20.2
		c1.7,1.2,3.6,1.8,5.4,1.8C579.9,137.4,586.1,130.9,586.1,115.3z"/>
	<path class="st0" d="M572.4,89.5h2.3h0.3c-0.1-14.8,3.7-26,7.3-37.8c2.4-8,4-15.8,4-25.5c0-10.4-2.3-18.3-5.8-22.6
		c-1.9-2.4-4.2-3.7-6.6-3.7c-7.1,0-12.7,10.1-12.7,26.2c0,9.7,1.6,17.5,4,25.5C568.6,63.5,572.5,74.7,572.4,89.5z"/>
</g>
<path class="st0" d="M599.6,125.6c3.4,0,6.2,2.6,6.2,6.1c0,3.5-2.8,6.2-6.2,6.2c-3.4,0-6.2-2.6-6.2-6.2
	C593.5,128.3,596.3,125.6,599.6,125.6z M599.6,137c2.8,0,5-2.3,5-5.3c0-2.9-2.2-5.2-5-5.2c-2.9,0-5.1,2.3-5.1,5.2
	C594.6,134.8,596.8,137,599.6,137z M597.3,128.2h2.8c1.7,0,2.5,0.7,2.5,2.1c0,1.3-0.8,1.8-1.9,2l2.1,3.2h-1.2l-2-3.1h-1.2v3.1h-1.1
	V128.2z M598.4,131.4h1.2c1,0,1.9,0,1.9-1.2c0-1-0.8-1.1-1.6-1.1h-1.5V131.4z"/>
</svg>
