<svg xmlns="http://www.w3.org/2000/svg" width="3cm" height="3cm" viewBox="0 0 85.04 85.04"><defs><style>.a{fill:#33ace3}.b{fill:#fff}</style></defs><title>greece</title><path class="a" d="M.77.77h83.5v83.5H.77z"/><path class="b" d="M.77 0H85v85H0V0h.77zM83.5 1.54h-82v82h82v-82z"/><path class="b" d="M12.84 42.84h-2.31v-.52h7v.52h-2a4.18 4.18 0 0 1-1.67 3.74 6.16 6.16 0 0 1-3.5 1.13A5.56 5.56 0 0 1 6 45.58a7.56 7.56 0 0 1-1.78-5 7.45 7.45 0 0 1 1.82-5 5.73 5.73 0 0 1 4.53-2.12 4.93 4.93 0 0 1 2.68.81 1.29 1.29 0 0 0 .54.24.9.9 0 0 0 .65-.58h.45l.11 3.71h-.49Q13.66 34 10.52 34a3.32 3.32 0 0 0-2.39.74 3.19 3.19 0 0 0-.92 1.86A23.29 23.29 0 0 0 7 39.79a31.36 31.36 0 0 0 .25 5 3 3 0 0 0 1 1.83 2.94 2.94 0 0 0 1.89.61 3.37 3.37 0 0 0 1.59-.37 1.62 1.62 0 0 0 .87-1.09 9.79 9.79 0 0 0 .18-2.17v-.76zm6.49 4h-2.15v.56h6.7v-.52h-2.14v-6.47H23c1.35 0 2.22.29 2.61.88a3.23 3.23 0 0 1 .57 1.78v1.73a3 3 0 0 0 .67 1.83 2.75 2.75 0 0 0 2.36.94 5.2 5.2 0 0 0 1.71-.3v-.5a3.11 3.11 0 0 1-.85.14 1.06 1.06 0 0 1-.86-.37 3 3 0 0 1-.31-1.69 4.18 4.18 0 0 0-1.09-3.27 5.85 5.85 0 0 0-2.8-1.3A7.53 7.53 0 0 0 28.35 39a2.55 2.55 0 0 0 1-2.09 2.73 2.73 0 0 0-.68-1.83A3.17 3.17 0 0 0 27 34a9.41 9.41 0 0 0-2.4-.26h-7.42v.56h2.14v12.58zm2.41-12.54H24a6.36 6.36 0 0 1 1.4.13 1.55 1.55 0 0 1 .91.68 3.15 3.15 0 0 1 .37 1.74 4.52 4.52 0 0 1-.33 2.15 1.56 1.56 0 0 1-1 .82 7.68 7.68 0 0 1-1.8.16h-1.81V34.3zm14.26 0v5.84h1.23a4.2 4.2 0 0 0 1.1-.12 1.5 1.5 0 0 0 .81-.69 3.57 3.57 0 0 0 .41-1.75h.53v5.77h-.53a3.29 3.29 0 0 0-.64-2.17 2.38 2.38 0 0 0-1.69-.52H36v6.22h2.77a4.33 4.33 0 0 0 3.27-1 5 5 0 0 0 1.08-3h.52l-.14 4.52H31.43v-.52h2.16V34.3h-2.16v-.52H43l.23 3.64h-.51A3.93 3.93 0 0 0 41.63 35a4.1 4.1 0 0 0-2.74-.73H36zm13.21 0v5.84h1.23a4.2 4.2 0 0 0 1.1-.12 1.5 1.5 0 0 0 .81-.69 3.57 3.57 0 0 0 .41-1.75h.53v5.77h-.54a3.3 3.3 0 0 0-.63-2.17 2.39 2.39 0 0 0-1.69-.52H49.2v6.22H52a4.33 4.33 0 0 0 3.26-1 5 5 0 0 0 1.08-3h.52l-.15 4.52H44.63v-.52h2.16V34.3h-2.16v-.52h11.58l.23 3.64h-.52A3.93 3.93 0 0 0 54.84 35a4.1 4.1 0 0 0-2.74-.73h-2.9zm18.52-.67v4h-.44Q66.58 34 63.61 34a2.5 2.5 0 0 0-2.33 1.25q-.73 1.25-.73 5.26a21 21 0 0 0 .32 4.49A2.8 2.8 0 0 0 62 46.68a3 3 0 0 0 1.71.51 3.46 3.46 0 0 0 2.29-.91 6 6 0 0 0 1.66-2.95h.44l-.16 4.15h-.42a2.64 2.64 0 0 0-.73-1.1 4.78 4.78 0 0 1-7.23-.71 7.34 7.34 0 0 1-1.77-5 7.74 7.74 0 0 1 1.74-5.12 5.16 5.16 0 0 1 4-2.1 4.42 4.42 0 0 1 3.12 1.27 8 8 0 0 0 .6-1.11h.44zm5.72.67v5.84h1.23a4.22 4.22 0 0 0 1.1-.12 1.5 1.5 0 0 0 .81-.69 3.57 3.57 0 0 0 .41-1.75h.53v5.77H77a3.28 3.28 0 0 0-.63-2.17 2.38 2.38 0 0 0-1.69-.52h-1.23v6.22h2.77a4.33 4.33 0 0 0 3.27-1 5 5 0 0 0 1.08-3h.52L81 47.4H68.88v-.52H71V34.3h-2.12v-.52h11.57l.23 3.64h-.51A3.92 3.92 0 0 0 79.08 35a4.09 4.09 0 0 0-2.74-.73h-2.89z"/></svg>