<svg data-name="Layer 1" xmlns="http://www.w3.org/2000/svg" width="533.333" height="533.329" viewBox="0 0 400 399.998"><path fill="#33ace3" d="M3.608 3.611h392.777v392.777H3.608z"/><path d="M3.608 0H400v399.998H0V0zM392.77 7.221H7.22v385.556h385.55z" fill="#fff"/><path d="M60.388 201.515H49.54v-2.44H82.7v2.44h-9.274q0 12.278-7.875 17.593a28.974 28.974 0 0 1-16.482 5.328q-12.564 0-20.916-10.023a35.562 35.562 0 0 1-8.364-23.463 35.02 35.02 0 0 1 8.562-23.574 26.94 26.94 0 0 1 21.288-9.958 23.199 23.199 0 0 1 12.62 3.83 6.06 6.06 0 0 0 2.526 1.14c1.025 0 2.04-.914 3.067-2.724h2.136l.666 17.396h-2.425q-3.966-17.213-18.769-17.199c-5.13 0-8.866 1.158-11.231 3.46a15.02 15.02 0 0 0-4.318 8.736 109.537 109.537 0 0 0-.785 15.08q0 17.611 1.16 23.344 1.17 5.747 4.807 8.627a13.835 13.835 0 0 0 8.886 2.89 15.864 15.864 0 0 0 7.464-1.72 7.598 7.598 0 0 0 4.107-5.13 46.056 46.056 0 0 0 .838-10.211zM90.9 220.523H80.824v2.43h31.516v-2.43h-10.076v-30.437h5.969c6.373 0 10.448 1.387 12.258 4.144a15.213 15.213 0 0 1 2.689 8.378l-.197 8.117a14.038 14.038 0 0 0 3.167 8.594q3.252 4.403 11.114 4.4a24.443 24.443 0 0 0 8.038-1.433v-2.347a14.64 14.64 0 0 1-4.008.666 4.976 4.976 0 0 1-4.044-1.727c-.978-1.176-1.454-3.812-1.454-7.956q0-10.859-5.13-15.383a27.508 27.508 0 0 0-13.156-6.119v-.23q11.176-1.909 15.845-5.691a11.99 11.99 0 0 0 4.676-9.83 12.843 12.843 0 0 0-3.194-8.622 14.905 14.905 0 0 0-7.61-4.943 44.272 44.272 0 0 0-11.304-1.204H80.824v2.444H90.9zm11.364-59.178h10.843a29.896 29.896 0 0 1 6.57.588 7.301 7.301 0 0 1 4.27 3.179q1.758 2.59 1.76 8.167c0 4.548-.57 7.873-1.745 9.958a7.36 7.36 0 0 1-4.646 3.873 36.109 36.109 0 0 1-8.457.744h-8.595zm67.05 0V188.8h5.772a19.76 19.76 0 0 0 5.184-.588 7.034 7.034 0 0 0 3.815-3.23c1.144-1.76 1.777-4.483 1.943-8.217h2.474v27.129h-2.474c-.264-5.15-1.256-8.553-2.988-10.189-1.739-1.644-4.382-2.462-7.954-2.462h-5.771v29.279h13.024q11.087 0 15.363-4.662 4.276-4.644 5.085-14.346h2.446l-.622 21.438h-56.796v-2.43h10.17v-59.177h-10.17v-2.444h54.45l1.091 17.102h-2.428c-.833-5.186-2.53-8.935-5.103-11.217-2.593-2.302-6.88-3.44-12.898-3.44zm62.116 0V188.8h5.77a19.747 19.747 0 0 0 5.18-.588 7.037 7.037 0 0 0 3.818-3.23c1.144-1.76 1.778-4.483 1.943-8.217h2.48v27.129h-2.48c-.266-5.15-1.258-8.553-2.986-10.189-1.745-1.644-4.386-2.462-7.955-2.462h-5.77v29.279h13.022q11.072 0 15.356-4.662 4.285-4.644 5.09-14.346h2.443l-.615 21.438h-56.803v-2.43h10.174v-59.177h-10.174v-2.444h54.45l1.093 17.102h-2.425c-.836-5.186-2.53-8.935-5.103-11.217-2.595-2.302-6.886-3.44-12.898-3.44zm87.133-3.165v19.013h-2.053q-3.349-17.343-17.3-17.332-7.482 0-10.941 5.87-3.418 5.87-3.436 24.746c0 10.358.506 17.381 1.48 21.111 1 3.72 2.71 6.395 5.14 7.993a14.313 14.313 0 0 0 8.051 2.416 16.268 16.268 0 0 0 10.763-4.327q5.036-4.3 7.804-13.872h2.251l-.767 19.531h-1.953a12.424 12.424 0 0 0-3.445-5.154c-5.02 4.176-10.206 6.26-15.516 6.26q-10.122 0-18.489-9.6-8.358-9.61-8.346-23.494c0-9.472 2.737-17.474 8.203-24.06q8.214-9.853 19.009-9.863a20.8 20.8 0 0 1 14.671 5.986 37.842 37.842 0 0 0 2.82-5.223zm26.913 3.165V188.8h5.774a19.835 19.835 0 0 0 5.186-.588 7.059 7.059 0 0 0 3.812-3.23c1.14-1.76 1.778-4.483 1.939-8.217h2.48v27.129h-2.48c-.257-5.15-1.25-8.553-2.986-10.189-1.745-1.644-4.382-2.462-7.951-2.462h-5.774v29.279h13.027q11.08 0 15.36-4.662 4.28-4.644 5.08-14.346h2.445l-.616 21.438h-56.798v-2.43h10.174v-59.177h-10.174v-2.444h54.446l1.098 17.102h-2.43c-.836-5.186-2.526-8.935-5.108-11.217-2.59-2.302-6.872-3.44-12.89-3.44z" fill="#fff"/></svg>